<?xml version="1.0" encoding="UTF-8" standalone="no"?>
<!-- Created with Inkscape (http://www.inkscape.org/) -->

<svg
   xmlns:dc="http://purl.org/dc/elements/1.1/"
   xmlns:cc="http://creativecommons.org/ns#"
   xmlns:rdf="http://www.w3.org/1999/02/22-rdf-syntax-ns#"
   xmlns:svg="http://www.w3.org/2000/svg"
   xmlns="http://www.w3.org/2000/svg"
   xmlns:sodipodi="http://sodipodi.sourceforge.net/DTD/sodipodi-0.dtd"
   xmlns:inkscape="http://www.inkscape.org/namespaces/inkscape"
   version="1.1"
   width="744.09448"
   height="1052.3622"
   id="svg3321"
   inkscape:version="0.48.3.1 r9886"
   sodipodi:docname="bass_prototype_2.svg">
  <sodipodi:namedview
     pagecolor="#ffffff"
     bordercolor="#666666"
     borderopacity="1"
     objecttolerance="10"
     gridtolerance="10"
     guidetolerance="10"
     inkscape:pageopacity="0"
     inkscape:pageshadow="2"
     inkscape:window-width="1215"
     inkscape:window-height="776"
     id="namedview3085"
     showgrid="false"
     inkscape:zoom="0.46843046"
     inkscape:cx="263.98916"
     inkscape:cy="535.40189"
     inkscape:window-x="65"
     inkscape:window-y="24"
     inkscape:window-maximized="1"
     inkscape:current-layer="svg3321" />
  <defs
     id="defs3323" />
  <metadata
     id="metadata3326">
    <rdf:RDF>
      <cc:Work
         rdf:about="">
        <dc:format>image/svg+xml</dc:format>
        <dc:type
           rdf:resource="http://purl.org/dc/dcmitype/StillImage" />
        <dc:title />
      </cc:Work>
    </rdf:RDF>
  </metadata>
  <g
     id="layer1">
    <g
       transform="translate(8.65632,2.9003296)"
       id="bass"
       style="opacity:0.6692913;display:inline">
      <g
         id="body"
         style="display: inline;">
        <path
           d="M 31.314729,132.11321 C 61.366767,128.57768 85.862966,134.38606 85.862966,134.38606 85.862966,134.38606 107.83378,142.21474 114.39978,144.74012 120.96577,147.2655 138.89598,155.8518 138.89598,155.8518 138.89598,155.8518 148.74496,160.90256 153.29065,162.41779 157.83634,163.93302 160.61425,163.93302 164.65487,163.93302 168.69548,163.93302 175.00893,162.16525 177.02923,161.1551 179.04954,160.14495 184.60538,156.35687 188.39345,153.32642 192.18152,150.29596 195.71706,146.76042 200.76782,141.70966 205.81858,136.6589 220.33952,124.91588 224.5064,122.39049 228.67328,119.86511 238.64854,119.1075 243.57303,118.98123 248.49753,118.85496 256.83129,119.61257 261.88205,120.749 266.93281,121.88542 275.77165,126.68364 278.4233,128.45141 281.07495,130.21918 296.07143,146.6479 300.35714,152.00504 304.64286,157.36218 313.92857,184.50504 313.92857,184.50504 L 608.21429,76.290753 C 608.21429,76.290753 612.14286,73.790752 615.71429,69.147895 619.28572,64.505038 624.28572,59.147895 624.28572,57.719324 624.28572,56.290752 626.07143,57.719324 633.21429,57.005038 640.35714,56.290752 652.55854,50.038318 657.60931,47.260399 662.66007,44.482479 665.18545,39.684255 665.43799,37.916488 665.69053,36.148721 669.73114,39.431717 670.74129,39.431717 671.75144,39.431717 671.24637,85.898734 671.24637,85.898734 671.24637,85.898734 667.4583,85.141119 661.90246,86.656348 656.34662,88.171577 650.2857,92.717264 648.77047,94.232492 647.25524,95.747721 641.19433,101.5561 640.18418,103.32387 639.17402,105.09163 630.84027,102.06117 627.05219,101.80864 623.26412,101.5561 616.19305,102.81879 616.19305,102.81879 L 292.6917,239.69446 C 292.6917,239.69446 290.92393,240.95715 289.15617,245.2503 287.3884,249.54345 288.90363,252.5739 288.90363,254.08913 288.90363,255.60436 289.66124,257.11959 291.93409,259.89751 294.20693,262.67543 296.47977,263.43304 300.52038,265.70589 304.56099,267.97873 308.34906,271.26173 311.12698,273.78711 313.9049,276.31249 317.94551,279.09041 319.46074,284.39371 320.97597,289.69701 321.48105,295.75793 320.97597,299.79854 320.4709,303.83915 320.21836,308.38483 317.44044,312.1729 314.66252,315.96098 312.89475,318.23382 305.06607,322.02189 297.23739,325.80996 296.47977,328.33534 289.66124,329.09296 282.84271,329.85057 280.82241,329.3455 270.72088,329.09296 260.61936,328.84042 255.31606,329.3455 250.51783,330.60819 245.71961,331.87088 240.16377,332.12342 237.38585,335.15387 234.60793,338.18433 231.07239,340.20464 227.03178,346.26555 222.99117,352.32647 215.16249,368.74145 212.63711,375.55998 210.11173,382.37851 205.56604,392.98511 203.79828,397.02572 202.03051,401.06633 201.02036,403.59171 198.74751,407.12724 196.47467,410.66278 179.55462,427.07776 173.99878,431.87598 168.44294,436.67421 141.42136,450.05873 134.60283,452.07903 127.7843,454.09934 101.77287,459.40264 96.21703,459.65518 90.661191,459.90771 75.761441,460.16025 65.659916,459.1501 55.55839,458.13995 44.446712,455.10949 39.143411,453.34172 33.84011,451.57396 31.567267,448.79604 31.567267,450.05873 31.567267,451.32142 31.314729,132.11321 31.314729,132.11321 z"
           id="path3055"
           style="fill:none;stroke:#000000;stroke-width:1px;stroke-linecap:butt;stroke-linejoin:miter;stroke-opacity:1" />
        <path
           d="M 85.535714,248.25504 C 96.607143,261.46932 94.107143,258.61218 97.142857,263.25504 100.17857,267.8979 105,273.96932 107.14286,278.25504 109.28571,282.54075 116.25,296.82647 118.21429,304.68361 120.17857,312.54075 121.25,312.8979 122.14286,317.71932 123.03571,322.54075 122.67857,358.96932 122.67857,358.96932 122.67857,358.96932 122.32143,360.57647 121.78571,361.46932 121.25,362.36218 121.25,363.43361 120.17857,363.43361 119.10714,363.43361 120.35714,365.04075 116.96429,362.8979 113.57143,360.75504 113.57143,358.79075 113.21429,357.18361 112.85714,355.57647 106.07143,343.07647 103.39286,338.61218 100.71429,334.1479 69.821429,293.25504 65.535714,290.21932 61.25,287.18361 68.214286,274.1479 68.214286,274.1479 68.214286,274.1479 75.357143,265.57647 77.321429,262.71932 79.285714,259.86218 80.357143,253.25504 80.535714,251.29075 80.714286,249.32647 85.535714,248.25504 85.535714,248.25504 z"
           id="path3057"
           style="fill:none;stroke:#000000;stroke-width:1px;stroke-linecap:butt;stroke-linejoin:miter;stroke-opacity:1" />
        <path
           d="M 89.107142,276.20148 A 4.821429,5.0892861 0 1 1 79.464284,276.20148 4.821429,5.0892861 0 1 1 89.107142,276.20148 z"
           id="path3059"
           style="fill:#000000;fill-opacity:0;fill-rule:evenodd;stroke:#008080;stroke-width:0.2;stroke-miterlimit:4;stroke-opacity:1;stroke-dasharray:none" />
        <path
           d="M 95.357144,289.86218 A 5.2678571,5.1785712 0 1 1 84.82143,289.86218 5.2678571,5.1785712 0 1 1 95.357144,289.86218 z"
           id="path3061"
           style="fill:#000000;fill-opacity:0;fill-rule:evenodd;stroke:#008080;stroke-width:0.2;stroke-miterlimit:4;stroke-opacity:1;stroke-dasharray:none" />
        <path
           d="M 102.14286,303.34433 A 4.732145,5.2678594 0 1 1 92.67857,303.34433 4.732145,5.2678594 0 1 1 102.14286,303.34433 z"
           id="path3063"
           style="fill:#000000;fill-opacity:0;fill-rule:evenodd;stroke:#008080;stroke-width:0.2;stroke-miterlimit:4;stroke-opacity:1;stroke-dasharray:none" />
        <path
           d="M 109.10714,316.38004 A 4.9107141,5.0892859 0 1 1 99.285712,316.38004 4.9107141,5.0892859 0 1 1 109.10714,316.38004 z"
           id="path3067"
           style="fill:#000000;fill-opacity:0;fill-rule:evenodd;stroke:#008080;stroke-width:0.2;stroke-miterlimit:4;stroke-opacity:1;stroke-dasharray:none" />
        <path
           d="M 89.821429,270.04075 C 112.32143,314.68361 112.85714,315.93361 112.85714,315.93361 112.85714,315.93361 114.82143,318.96932 115.53571,316.29075 116.25,313.61218 92.142857,267.00504 92.142857,267.00504 92.142857,267.00504 90.714286,264.50504 89.821429,266.6479 88.928572,268.79075 89.821429,270.04075 89.821429,270.04075 z"
           id="path3069"
           style="fill:none;stroke:#000000;stroke-width:1px;stroke-linecap:butt;stroke-linejoin:miter;stroke-opacity:1" />
        <path
           d="M 314.03117,184.38861 232.14286,213.79075 250,256.6479 293.57143,239.32647"
           id="path3877"
           style="fill:none;stroke:#000000;stroke-width:1px;stroke-linecap:butt;stroke-linejoin:miter;stroke-opacity:1" />
        <path
           d="M 629.57757,56.351772 C 629.57757,52.058624 629.27452,52.564581 629.83011,50.795933 630.39704,48.991186 629.83011,48.270551 632.86057,45.997708 635.89103,43.724865 636.30383,42.767299 636.14357,40.694407 635.9641,38.373047 633.61818,35.138568 631.59788,35.391107 629.57757,35.643645 629.83011,36.401259 628.31488,37.66395 626.79966,38.92664 624.52681,39.431717 622.50651,38.92664 620.4862,38.421564 617.70828,38.421564 616.19305,40.189331 614.67782,41.957098 614.17275,44.229941 615.1829,45.997708 616.19305,47.765475 619.22351,47.260399 621.49635,49.028166 623.7692,50.795933 626.54712,50.038318 627.55727,53.068776 628.56742,56.099234 628.31488,57.109386 628.31488,57.109386"
           id="path3879"
           style="fill:none;stroke:#000000;stroke-width:1px;stroke-linecap:butt;stroke-linejoin:miter;stroke-opacity:1" />
        <path
           d="M 651.54839,50.038318 C 651.80093,44.482479 651.04332,46.250246 652.17974,43.598595 653.31616,40.946945 653.82124,41.830828 656.09408,38.547833 658.36692,35.264837 657.2305,31.855572 657.2305,31.855572 657.2305,31.855572 657.10423,30.466612 655.33646,29.45646 653.5687,28.446307 652.17974,27.309886 650.91705,27.688693 649.65436,28.0675 648.51794,30.466612 646.37136,31.350496 644.22479,32.234379 642.45702,30.971689 639.6791,31.350496 636.90118,31.729303 636.0173,36.527528 636.0173,36.527528 636.0173,36.527528 635.25968,38.421564 637.02745,40.441869 638.79522,42.462174 642.07821,39.684254 644.35106,41.325752 646.6239,42.96725 648.89674,49.912049 648.89674,51.301009"
           id="path3881"
           style="fill:none;stroke:#000000;stroke-width:1px;stroke-linecap:butt;stroke-linejoin:miter;stroke-opacity:1" />
        <path
           d="M 635.625,103.70147 C 634.73214,108.34432 632.5,113.07647 632.5,113.07647 632.5,113.07647 631.16072,116.55861 632.23214,117.63004 633.30357,118.70147 637.78506,118.47615 640.68925,117.59227 643.59344,116.70839 645.74002,114.05674 646.49763,112.1627 647.25524,110.26866 647.25524,107.49074 643.84598,104.96536 640.43671,102.43998 640.56298,102.94506 640.56298,102.94506"
           id="path3883"
           style="fill:none;stroke:#000000;stroke-width:1px;stroke-linecap:butt;stroke-linejoin:miter;stroke-opacity:1" />
        <path
           d="M 652.30601,91.454572 C 652.30601,91.454572 657.2305,96.252797 657.48304,97.515488 657.73558,98.778178 657.35677,101.30356 657.86185,103.07133 658.36692,104.83909 660.8923,105.72298 660.8923,105.72298 660.8923,105.72298 662.91261,105.47044 663.03888,104.20775 663.16515,102.94506 661.52365,101.05102 661.39738,99.156986 661.27111,97.262949 662.40753,95.621452 661.77619,93.853685 661.14484,92.085918 653.44243,89.939344 653.44243,89.939344"
           id="path3885"
           style="fill:none;stroke:#000000;stroke-width:1px;stroke-linecap:butt;stroke-linejoin:miter;stroke-opacity:1" />
        <path
           d="M 640,60.219323 C 643.21429,60.576466 644.46429,61.647895 644.82143,62.719323 645.17857,63.790752 645,66.290752 645,67.005038 645,67.719323 641.60714,68.433609 640.35714,68.076466 639.10714,67.719323 638.21429,66.290752 638.21429,66.290752 638.21429,66.290752 637.14286,64.326466 637.32143,63.076466 637.5,61.826466 637.85714,60.755038 640,60.219323 z"
           id="path3887"
           style="fill:none;stroke:#000000;stroke-width:1px;stroke-linecap:butt;stroke-linejoin:miter;stroke-opacity:1" />
        <path
           d="M 639.46429,60.040752 C 639.46429,60.040752 638.75,62.183609 635.35714,61.112181 631.96429,60.040752 631.60714,63.612181 631.60714,63.612181 631.60714,63.612181 631.07143,66.290752 631.96429,67.362181 632.85714,68.433609 638.03572,66.112181 638.03572,66.112181"
           id="path3889"
           style="fill:none;stroke:#000000;stroke-width:1px;stroke-linecap:butt;stroke-linejoin:miter;stroke-opacity:1" />
        <path
           d="M 660.44643,53.790751 C 660.44643,53.790751 661.60714,54.326466 661.60714,55.130037 661.60714,55.933609 661.33929,57.451466 660.53572,58.61218 659.73214,59.772894 658.57143,60.308609 657.14286,60.040751 655.71429,59.772894 653.5687,56.983117 654.20004,55.21535 654.83139,53.447583 657.35677,50.922201 658.99827,52.563699 660.63977,54.205197 662.02873,53.700121 662.02873,53.700121 662.02873,53.700121 666.06934,53.321314 666.82695,57.488193 666.82695,57.488193 667.05357,60.130037 666.78572,60.308609 666.51786,60.48718 659.55357,60.040751 659.55357,60.040751"
           id="path3891"
           style="fill:none;stroke:#000000;stroke-width:1px;stroke-linecap:butt;stroke-linejoin:miter;stroke-opacity:1" />
        <path
           d="M 664.19643,76.11218 C 665.625,78.433609 665.89286,78.701466 667.32143,79.058609 668.75,79.415751 669.55357,78.880037 669.73214,77.719323 669.91072,76.558609 669.82143,75.308609 669.28572,74.326466 668.75,73.344323 668.21429,72.98718 666.60714,72.98718 665,72.98718 664.19643,76.11218 664.19643,76.11218 z"
           id="path3895"
           style="fill:none;stroke:#000000;stroke-width:1px;stroke-linecap:butt;stroke-linejoin:miter;stroke-opacity:1" />
        <path
           d="M 665.53572,73.165751 C 665.53572,73.165751 663.48214,73.344323 661.69643,72.808609 659.91072,72.272894 658.75,72.272894 658.03572,73.344323 657.32143,74.415751 657.05357,76.915751 657.5,78.255037 657.94643,79.594323 659.46429,79.415751 660.89286,78.969323 662.32143,78.522894 663.21429,77.272894 664.55357,77.630037"
           id="path3897"
           style="fill:none;stroke:#000000;stroke-width:1px;stroke-linecap:butt;stroke-linejoin:miter;stroke-opacity:1" />
        <path
           d="M 649.02301,85.519926 C 649.40182,89.434267 648.6442,90.318151 648.6442,90.318151 648.6442,90.318151 647.38151,91.580841 645.61375,91.70711 643.84598,91.83338 642.58329,88.424115 642.58329,87.413962 642.58329,86.40381 642.9621,85.393657 645.23494,85.01485 647.50778,84.636043 648.6442,84.509774 649.02301,85.519926 z"
           id="path3899"
           style="fill:none;stroke:#000000;stroke-width:1px;stroke-linecap:butt;stroke-linejoin:miter;stroke-opacity:1" />
        <path
           d="M 644.09852,90.696958 C 644.09852,90.696958 644.72986,89.181729 640.81552,90.191882 636.90118,91.202034 637.53253,87.413962 637.40626,86.40381 637.27999,85.393657 638.66895,83.62589 640.31045,83.752159 641.95194,83.878428 643.59344,85.393657 643.59344,85.393657"
           id="path3901"
           style="fill:none;stroke:#000000;stroke-width:1px;stroke-linecap:butt;stroke-linejoin:miter;stroke-opacity:1" />
        <path
           d="M 611.8999,79.58528 642.70956,67.715988"
           id="path3903"
           style="fill:none;stroke:#000000;stroke-width:1px;stroke-linecap:butt;stroke-linejoin:miter;stroke-opacity:1" />
        <path
           d="M 663.41768,60.139844 613.41513,85.898734"
           id="path3905"
           style="fill:none;stroke:#000000;stroke-width:1px;stroke-linecap:butt;stroke-linejoin:miter;stroke-opacity:1" />
        <path
           d="M 657.10423,78.070052 614.67782,93.22234"
           id="path3907"
           style="fill:none;stroke:#000000;stroke-width:1px;stroke-linecap:butt;stroke-linejoin:miter;stroke-opacity:1" />
        <path
           d="M 637.91133,90.191882 616.69813,100.54595"
           id="path3909"
           style="fill:none;stroke:#000000;stroke-width:1px;stroke-linecap:butt;stroke-linejoin:miter;stroke-opacity:1" />
        <path
           d="M 584.12071,85.141127 593.33835,112.16271"
           id="path3016"
           style="fill:none;stroke:#000000;stroke-width:1px;stroke-linecap:butt;stroke-linejoin:miter;stroke-opacity:1" />
        <path
           d="M 586.39355,83.752167 595.48492,111.53136"
           id="path3018"
           style="fill:none;stroke:#000000;stroke-width:1px;stroke-linecap:butt;stroke-linejoin:miter;stroke-opacity:1" />
        <path
           d="M 573.00903,121.00154 564.29646,92.464733"
           id="path3020"
           style="fill:none;stroke:#000000;stroke-width:1px;stroke-linecap:butt;stroke-linejoin:miter;stroke-opacity:1" />
        <path
           d="M 571.11499,121.63289 562.14989,93.096078"
           id="path3022"
           style="fill:none;stroke:#000000;stroke-width:1px;stroke-linecap:butt;stroke-linejoin:miter;stroke-opacity:1" />
        <path
           d="M 550.91194,130.47172 541.82057,100.16715"
           id="path3024"
           style="fill:none;stroke:#000000;stroke-width:1px;stroke-linecap:butt;stroke-linejoin:miter;stroke-opacity:1" />
        <path
           d="M 549.14417,131.10307 540.0528,101.68237"
           id="path3026"
           style="fill:none;stroke:#000000;stroke-width:1px;stroke-linecap:butt;stroke-linejoin:miter;stroke-opacity:1" />
        <path
           d="M 530.33008,138.80548 520.22856,108.24837"
           id="path3028"
           style="fill:none;stroke:#000000;stroke-width:1px;stroke-linecap:butt;stroke-linejoin:miter;stroke-opacity:1" />
        <path
           d="M 528.43605,139.56309 518.20825,109.38479"
           id="path3030"
           style="fill:none;stroke:#000000;stroke-width:1px;stroke-linecap:butt;stroke-linejoin:miter;stroke-opacity:1" />
        <path
           d="M 510.12703,147.77058 500.02551,115.4457"
           id="path3032"
           style="fill:none;stroke:#000000;stroke-width:1px;stroke-linecap:butt;stroke-linejoin:miter;stroke-opacity:1" />
        <path
           d="M 508.48553,148.40193 498.13147,116.32959"
           id="path3034"
           style="fill:none;stroke:#000000;stroke-width:1px;stroke-linecap:butt;stroke-linejoin:miter;stroke-opacity:1" />
        <path
           d="M 491.0604,155.72554 479.94872,123.14812"
           id="path3036"
           style="fill:none;stroke:#000000;stroke-width:1px;stroke-linecap:butt;stroke-linejoin:miter;stroke-opacity:1" />
        <path
           d="M 488.78756,156.73569 477.42334,124.032"
           id="path3038"
           style="fill:none;stroke:#000000;stroke-width:1px;stroke-linecap:butt;stroke-linejoin:miter;stroke-opacity:1" />
        <path
           d="M 472.24631,163.80676 461.38717,130.34545"
           id="path3040"
           style="fill:none;stroke:#000000;stroke-width:1px;stroke-linecap:butt;stroke-linejoin:miter;stroke-opacity:1" />
        <path
           d="M 469.97347,164.81691 458.86179,130.9768"
           id="path3042"
           style="fill:none;stroke:#000000;stroke-width:1px;stroke-linecap:butt;stroke-linejoin:miter;stroke-opacity:1" />
        <path
           d="M 454.56864,170.87782 443.3307,136.78518"
           id="path3044"
           style="fill:none;stroke:#000000;stroke-width:1px;stroke-linecap:butt;stroke-linejoin:miter;stroke-opacity:1" />
        <path
           d="M 452.2958,172.51932 440.42651,137.54279"
           id="path3046"
           style="fill:none;stroke:#000000;stroke-width:1px;stroke-linecap:butt;stroke-linejoin:miter;stroke-opacity:1" />
        <path
           d="M 438.27993,177.94889 426.66318,143.09863"
           id="path3048"
           style="fill:none;stroke:#000000;stroke-width:1px;stroke-linecap:butt;stroke-linejoin:miter;stroke-opacity:1" />
        <path
           d="M 435.24948,179.46412 423.38018,144.10878"
           id="path3050"
           style="fill:none;stroke:#000000;stroke-width:1px;stroke-linecap:butt;stroke-linejoin:miter;stroke-opacity:1" />
        <path
           d="M 422.11749,185.14623 409.74312,149.15954"
           id="path3052"
           style="fill:none;stroke:#000000;stroke-width:1px;stroke-linecap:butt;stroke-linejoin:miter;stroke-opacity:1" />
        <path
           d="M 406.46013,150.04343 418.96077,185.52504"
           id="path3054"
           style="fill:none;stroke:#000000;stroke-width:1px;stroke-linecap:butt;stroke-linejoin:miter;stroke-opacity:1" />
        <path
           d="M 393.95949,154.71538 406.9652,190.95461"
           id="path3056"
           style="fill:none;stroke:#000000;stroke-width:1px;stroke-linecap:butt;stroke-linejoin:miter;stroke-opacity:1" />
        <path
           d="M 390.55023,155.59927 404.18728,192.46983"
           id="path3058"
           style="fill:none;stroke:#000000;stroke-width:1px;stroke-linecap:butt;stroke-linejoin:miter;stroke-opacity:1" />
        <path
           d="M 392.6968,197.64687 378.93347,160.27122"
           id="path3060"
           style="fill:none;stroke:#000000;stroke-width:1px;stroke-linecap:butt;stroke-linejoin:miter;stroke-opacity:1" />
        <path
           d="M 389.91888,198.65702 376.28182,161.78645"
           id="path3062"
           style="fill:none;stroke:#000000;stroke-width:1px;stroke-linecap:butt;stroke-linejoin:miter;stroke-opacity:1" />
        <path
           d="M 378.17586,203.45524 364.15999,165.82706"
           id="path3064"
           style="fill:none;stroke:#000000;stroke-width:1px;stroke-linecap:butt;stroke-linejoin:miter;stroke-opacity:1" />
        <path
           d="M 376.02928,204.71793 361.76088,166.45841"
           id="path3066"
           style="fill:none;stroke:#000000;stroke-width:1px;stroke-linecap:butt;stroke-linejoin:miter;stroke-opacity:1" />
        <path
           d="M 365.17014,209.51616 351.02801,170.75155"
           id="path3068"
           style="fill:none;stroke:#000000;stroke-width:1px;stroke-linecap:butt;stroke-linejoin:miter;stroke-opacity:1" />
        <path
           d="M 362.39222,210.52631 347.99755,171.76171"
           id="path3070"
           style="fill:none;stroke:#000000;stroke-width:1px;stroke-linecap:butt;stroke-linejoin:miter;stroke-opacity:1" />
        <path
           d="M 352.79577,214.06184 338.02229,175.42351"
           id="path3072"
           style="fill:none;stroke:#000000;stroke-width:1px;stroke-linecap:butt;stroke-linejoin:miter;stroke-opacity:1" />
        <path
           d="M 350.27039,215.32454 335.37064,176.81247"
           id="path3074"
           style="fill:none;stroke:#000000;stroke-width:1px;stroke-linecap:butt;stroke-linejoin:miter;stroke-opacity:1" />
        <path
           d="M 341.17902,219.11261 326.02673,180.22173"
           id="path3076"
           style="fill:none;stroke:#000000;stroke-width:1px;stroke-linecap:butt;stroke-linejoin:miter;stroke-opacity:1" />
        <path
           d="M 338.65364,220.24903 323.24881,181.23189"
           id="path3078"
           style="fill:none;stroke:#000000;stroke-width:1px;stroke-linecap:butt;stroke-linejoin:miter;stroke-opacity:1" />
        <path
           d="M 329.94107,224.16337 314.78878,184.38861"
           id="path3080"
           style="fill:none;stroke:#000000;stroke-width:1px;stroke-linecap:butt;stroke-linejoin:miter;stroke-opacity:1" />
        <path
           d="M 327.28942,225.04725 311.50579,185.2725"
           id="path3082"
           style="fill:none;stroke:#000000;stroke-width:1px;stroke-linecap:butt;stroke-linejoin:miter;stroke-opacity:1" />
        <path
           d="M 318.57686,228.83533 303.04576,187.92415"
           id="path3084"
           style="fill:none;stroke:#000000;stroke-width:1px;stroke-linecap:butt;stroke-linejoin:miter;stroke-opacity:1" />
        <path
           d="M 315.5464,229.84548 300.26784,189.06057"
           id="path3086"
           style="fill:none;stroke:#000000;stroke-width:1px;stroke-linecap:butt;stroke-linejoin:miter;stroke-opacity:1" />
        <path
           d="M 308.6016,233.25474 292.94424,191.45968"
           id="path3088"
           style="fill:none;stroke:#000000;stroke-width:1px;stroke-linecap:butt;stroke-linejoin:miter;stroke-opacity:1" />
        <path
           d="M 306.20249,233.88609 290.16632,192.34357"
           id="path3090"
           style="fill:none;stroke:#000000;stroke-width:1px;stroke-linecap:butt;stroke-linejoin:miter;stroke-opacity:1" />
        <path
           d="M 298.12127,237.16908 282.96898,195.62656"
           id="path3096"
           style="fill:none;stroke:#000000;stroke-width:1px;stroke-linecap:butt;stroke-linejoin:miter;stroke-opacity:1" />
        <path
           d="M 295.84842,237.9267 280.31733,196.13164"
           id="path3098"
           style="fill:none;stroke:#000000;stroke-width:1px;stroke-linecap:butt;stroke-linejoin:miter;stroke-opacity:1" />
        <path
           d="M 289.28243,240.70462 273.24626,198.90956"
           id="path3100"
           style="fill:none;stroke:#000000;stroke-width:1px;stroke-linecap:butt;stroke-linejoin:miter;stroke-opacity:1" />
        <path
           d="M 286.88332,242.09358 270.46834,199.91971"
           id="path3102"
           style="fill:none;stroke:#000000;stroke-width:1px;stroke-linecap:butt;stroke-linejoin:miter;stroke-opacity:1" />
        <path
           d="M 280.4436,244.74523 263.52354,201.94001"
           id="path3104"
           style="fill:none;stroke:#000000;stroke-width:1px;stroke-linecap:butt;stroke-linejoin:miter;stroke-opacity:1" />
        <path
           d="M 277.91822,245.37657 260.99816,203.58151"
           id="path3106"
           style="fill:none;stroke:#000000;stroke-width:1px;stroke-linecap:butt;stroke-linejoin:miter;stroke-opacity:1" />
        <path
           d="M 271.35223,247.90195 254.17963,205.60182"
           id="path3108"
           style="fill:none;stroke:#000000;stroke-width:1px;stroke-linecap:butt;stroke-linejoin:miter;stroke-opacity:1" />
        <path
           d="M 268.57431,249.16465 251.27544,206.86451"
           id="path3110"
           style="fill:none;stroke:#000000;stroke-width:1px;stroke-linecap:butt;stroke-linejoin:miter;stroke-opacity:1" />
        <path
           d="M 263.14474,251.43749 z"
           id="path3112"
           style="fill:none;stroke:#000000;stroke-width:1px;stroke-linecap:butt;stroke-linejoin:miter;stroke-opacity:1" />
        <path
           d="M 263.27101,250.93241 245.71961,208.50601"
           id="path3114"
           style="fill:none;stroke:#000000;stroke-width:1px;stroke-linecap:butt;stroke-linejoin:miter;stroke-opacity:1" />
        <path
           d="M 261.62951,251.56376 243.32049,209.01108"
           id="path3116"
           style="fill:none;stroke:#000000;stroke-width:1px;stroke-linecap:butt;stroke-linejoin:miter;stroke-opacity:1" />
        <path
           d="M 245.17857,208.25504 C 238.16102,202.99211 229.89011,199.41216 221.25,197.8979 217.3645,197.21693 213.40197,196.94813 209.46428,197.18362 201.97958,197.63124 194.65371,199.90897 188.03571,203.43362 180.89378,207.2373 174.49592,212.54303 169.82143,219.1479 166.59486,223.70691 164.21649,228.83293 162.5,234.1479 160.73308,239.61903 159.65087,245.37343 160,251.11219 160.47248,258.87851 163.55111,266.30221 167.67857,272.8979 172.60668,280.77304 179.22557,287.78153 187.5,292.00504 192.56803,294.59191 198.13548,296.08092 203.75,297.00504 209.05869,297.87882 214.48977,298.26123 219.82143,297.54076 226.6865,296.61307 233.22029,293.87102 239.10714,290.21933 244.1518,287.09006 248.78383,283.27094 252.67857,278.79076 256.3428,274.57574 259.35559,269.75901 261.25,264.50504 262.71395,260.44491 263.50182,256.14191 263.57143,251.82647"
           id="path3122"
           style="fill:none;stroke:#000000;stroke-width:1px;stroke-linecap:butt;stroke-linejoin:miter;stroke-opacity:1" />
        <path
           d="M 612.03694,80.080836 586.72587,89.47383 564.90216,97.572656 542.88509,105.74324 520.79326,113.94156 500.81719,121.35473 480.34113,128.95344 461.68539,135.87662 443.5321,142.61335 426.5244,148.92495 410.20277,154.98194 394.24197,160.90503 379.21401,166.48194 364.86967,171.80515 351.44683,176.7864 338.71007,181.51304 326.19961,186.1557 315.51774,190.11976 304.15739,194.33561 294.12539,198.05851 284.0934,201.7814 274.17239,205.46311 264.99966,208.86713 255.35784,212.44523 247.34872,215.41743 88.660659,274.30692"
           id="path3126"
           style="fill:none;stroke:#000000;stroke-width:1px;stroke-linecap:butt;stroke-linejoin:miter;stroke-opacity:1" />
        <path
           d="M 613.29203,85.970009 589.09545,95.398996 567.05865,103.98635 544.56123,112.75321 523.23415,121.064 503.32651,128.82166 483.66796,136.48226 464.67437,143.88373 446.24585,151.06501 429.7252,157.50282 413.16184,163.95727 397.84704,169.92519 383.03198,175.69836 369.00281,181.16528 355.30251,186.50405 342.72827,191.40401 330.66666,196.10422 319.12896,200.60025 307.96286,204.95149 297.80754,208.90884 287.62239,212.87782 278.31421,216.50506 269.23093,220.04465 260.02672,223.63137 252.18636,226.68663 95.039971,287.92385"
           id="path3128"
           style="fill:none;stroke:#000000;stroke-width:1px;stroke-linecap:butt;stroke-linejoin:miter;stroke-opacity:1" />
        <path
           d="M 613.96248,93.015813 591.331,102.21931 568.82809,111.37052 546.69429,120.37163 526.32155,128.65657 505.70827,137.03933 486.13804,144.99792 466.79872,152.8626 449.49231,159.90056 432.70757,166.72638 416.62442,173.26688 401.26674,179.51235 386.50037,185.51737 372.26625,191.30592 358.98036,196.70887 346.36986,201.83716 334.63512,206.6093 323.63481,211.08277 312.0933,215.77634 302.46434,219.69213 292.03028,223.93532 282.88348,227.65503 273.8163,231.34237 264.21686,235.24615 256.55054,238.36379 102.08017,301.18195"
           id="path3130"
           style="fill:none;stroke:#000000;stroke-width:1px;stroke-linecap:butt;stroke-linejoin:miter;stroke-opacity:1" />
        <path
           d="M 616.60437,100.69528 593.94146,110.21258 571.48858,119.64168 549.50777,128.87254 529.32155,137.34975 508.73857,145.99358 489.2407,154.18173 470.66532,161.98247 452.74133,169.50966 435.94987,176.56125 419.75921,183.36052 404.25449,189.87174 389.90357,195.89842 376.42735,201.55776 362.65596,207.34107 350.39739,212.48906 339.15167,217.21171 327.82886,221.96673 315.84138,227.00088 306.62417,230.87165 296.58809,235.08631 286.93754,239.13906 278.75447,242.57555 268.90654,246.71119 261.55807,249.79719 108.50291,314.07279"
           id="path3132"
           style="fill:none;stroke:#000000;stroke-width:1px;stroke-linecap:butt;stroke-linejoin:miter;stroke-opacity:1" />
        <path
           d="M 558.17231,112.71318 A 2.3220322,2.2114592 0 1 1 553.52825,112.71318 2.3220322,2.2114592 0 1 1 558.17231,112.71318 z"
           id="path3134"
           style="fill:none;stroke:#000000;stroke-width:1.10000002;stroke-miterlimit:4;stroke-opacity:1;stroke-dasharray:none" />
        <path
           d="M 558.17231,112.71318 A 2.3220322,2.2114592 0 1 1 553.52825,112.71318 2.3220322,2.2114592 0 1 1 558.17231,112.71318 z"
           transform="translate(-42.791752,16.364796)"
           id="path3134-6"
           style="opacity:0.49606299;fill:none;stroke:#000000;stroke-width:1.10000002;stroke-miterlimit:4;stroke-opacity:1;stroke-dasharray:none;display:inline" />
        <path
           d="M 558.17231,112.71318 A 2.3220322,2.2114592 0 1 1 553.52825,112.71318 2.3220322,2.2114592 0 1 1 558.17231,112.71318 z"
           transform="translate(-81.255865,32.211969)"
           id="path3134-0"
           style="opacity:0.49606299;fill:none;stroke:#000000;stroke-width:1.10000002;stroke-miterlimit:4;stroke-opacity:1;stroke-dasharray:none;display:inline" />
        <path
           d="M 558.17231,112.71318 A 2.3220322,2.2114592 0 1 1 553.52825,112.71318 2.3220322,2.2114592 0 1 1 558.17231,112.71318 z"
           transform="translate(-117.22184,46.911104)"
           id="path3134-02"
           style="opacity:0.49606299;fill:none;stroke:#000000;stroke-width:1.10000002;stroke-miterlimit:4;stroke-opacity:1;stroke-dasharray:none;display:inline" />
        <path
           d="M 558.17231,112.71318 A 2.3220322,2.2114592 0 1 1 553.52825,112.71318 2.3220322,2.2114592 0 1 1 558.17231,112.71318 z"
           transform="translate(-167.31693,56.824691)"
           id="path3134-5"
           style="opacity:0.49606299;fill:none;stroke:#000000;stroke-width:1.10000002;stroke-miterlimit:4;stroke-opacity:1;stroke-dasharray:none;display:inline" />
        <path
           d="M 558.17231,112.71318 A 2.3220322,2.2114592 0 1 1 553.52825,112.71318 2.3220322,2.2114592 0 1 1 558.17231,112.71318 z"
           transform="translate(-161.52544,73.443746)"
           id="path3134-61"
           style="opacity:0.49606299;fill:none;stroke:#000000;stroke-width:1.10000002;stroke-miterlimit:4;stroke-opacity:1;stroke-dasharray:none;display:inline" />
        <path
           d="M 558.17231,112.71318 A 2.3220322,2.2114592 0 1 1 553.52825,112.71318 2.3220322,2.2114592 0 1 1 558.17231,112.71318 z"
           transform="translate(-205.59112,81.501468)"
           id="path3134-62"
           style="opacity:0.49606299;fill:none;stroke:#000000;stroke-width:1.10000002;stroke-miterlimit:4;stroke-opacity:1;stroke-dasharray:none;display:inline" />
        <path
           d="M 558.17231,112.71318 A 2.3220322,2.2114592 0 1 1 553.52825,112.71318 2.3220322,2.2114592 0 1 1 558.17231,112.71318 z"
           transform="translate(-229.26069,91.321819)"
           id="path3134-1"
           style="opacity:0.49606299;fill:none;stroke:#000000;stroke-width:1.10000002;stroke-miterlimit:4;stroke-opacity:1;stroke-dasharray:none;display:inline" />
        <path
           d="M 558.17231,112.71318 A 2.3220322,2.2114592 0 1 1 553.52825,112.71318 2.3220322,2.2114592 0 1 1 558.17231,112.71318 z"
           transform="translate(-251.41942,99.88315)"
           id="path3134-3"
           style="opacity:0.49606299;fill:none;stroke:#000000;stroke-width:1.10000002;stroke-miterlimit:4;stroke-opacity:1;stroke-dasharray:none;display:inline" />
        <path
           d="M 558.17231,112.71318 A 2.3220322,2.2114592 0 1 1 553.52825,112.71318 2.3220322,2.2114592 0 1 1 558.17231,112.71318 z"
           transform="translate(-271.06012,107.43727)"
           id="path3134-30"
           style="opacity:0.49606299;fill:none;stroke:#000000;stroke-width:1.10000002;stroke-miterlimit:4;stroke-opacity:1;stroke-dasharray:none;display:inline" />
        <path
           d="M 558.17231,112.71318 A 2.3220322,2.2114592 0 1 1 553.52825,112.71318 2.3220322,2.2114592 0 1 1 558.17231,112.71318 z"
           transform="translate(-302.03199,108.44448)"
           id="path3134-65"
           style="opacity:0.49606299;fill:none;stroke:#000000;stroke-width:1.10000002;stroke-miterlimit:4;stroke-opacity:1;stroke-dasharray:none;display:inline" />
        <path
           d="M 558.17231,112.71318 A 2.3220322,2.2114592 0 1 1 553.52825,112.71318 2.3220322,2.2114592 0 1 1 558.17231,112.71318 z"
           transform="translate(-293.72247,128.84059)"
           id="path3134-50"
           style="opacity:0.49606299;fill:none;stroke:#000000;stroke-width:1.10000002;stroke-miterlimit:4;stroke-opacity:1;stroke-dasharray:none;display:inline" />
      </g>
      <g
         id="bass_strings"
         style="display: inline;">
        <path
           d="M 612.03694,80.080836 586.72587,89.47383 564.90216,97.572656 542.88509,105.74324 520.79326,113.94156 500.81719,121.35473 480.34113,128.95344 461.68539,135.87662 443.5321,142.61335 426.5244,148.92495 410.20277,154.98194 394.24197,160.90503 379.21401,166.48194 364.86967,171.80515 351.44683,176.7864 338.71007,181.51304 326.19961,186.1557 315.51774,190.11976 304.15739,194.33561 294.12539,198.05851 284.0934,201.7814 274.17239,205.46311 264.99966,208.86713 255.35784,212.44523 247.34872,215.41743 88.660659,274.30692"
           id="bass_stringE"
           style="fill:none;stroke:#000000;stroke-width:1px;stroke-linecap:butt;stroke-linejoin:miter;stroke-opacity:1"
           inkscape:connector-curvature="0"
           sodipodi:nodetypes="cccccccccccccccccccccccccc" />
        <path
           d="M 613.29203,85.970009 589.09545,95.398996 567.05865,103.98635 544.56123,112.75321 523.23415,121.064 503.32651,128.82166 483.66796,136.48226 464.67437,143.88373 446.24585,151.06501 429.7252,157.50282 413.16184,163.95727 397.84704,169.92519 383.03198,175.69836 369.00281,181.16528 355.30251,186.50405 342.72827,191.40401 330.66666,196.10422 319.12896,200.60025 307.96286,204.95149 297.80754,208.90884 287.62239,212.87782 278.31421,216.50506 269.23093,220.04465 260.02672,223.63137 252.18636,226.68663 95.039971,287.92385"
           id="bass_stringA"
           style="fill:none;stroke:#000000;stroke-width:1px;stroke-linecap:butt;stroke-linejoin:miter;stroke-opacity:1" />
        <path
           d="M 613.96248,93.015813 591.331,102.21931 568.82809,111.37052 546.69429,120.37163 526.32155,128.65657 505.70827,137.03933 486.13804,144.99792 466.79872,152.8626 449.49231,159.90056 432.70757,166.72638 416.62442,173.26688 401.26674,179.51235 386.50037,185.51737 372.26625,191.30592 358.98036,196.70887 346.36986,201.83716 334.63512,206.6093 323.63481,211.08277 312.0933,215.77634 302.46434,219.69213 292.03028,223.93532 282.88348,227.65503 273.8163,231.34237 264.21686,235.24615 256.55054,238.36379 102.08017,301.18195"
           id="bass_stringD"
           style="fill:none;stroke:#000000;stroke-width:1px;stroke-linecap:butt;stroke-linejoin:miter;stroke-opacity:1" />
        <path
           d="M 616.60437,100.69528 593.94146,110.21258 571.48858,119.64168 549.50777,128.87254 529.32155,137.34975 508.73857,145.99358 489.2407,154.18173 470.66532,161.98247 452.74133,169.50966 435.94987,176.56125 419.75921,183.36052 404.25449,189.87174 389.90357,195.89842 376.42735,201.55776 362.65596,207.34107 350.39739,212.48906 339.15167,217.21171 327.82886,221.96673 315.84138,227.00088 306.62417,230.87165 296.58809,235.08631 286.93754,239.13906 278.75447,242.57555 268.90654,246.71119 261.55807,249.79719 108.50291,314.07279"
           id="bass_stringG"
           style="fill:none;stroke:#000000;stroke-width:1px;stroke-linecap:butt;stroke-linejoin:miter;stroke-opacity:1" />
      </g>
    </g>
  </g>
</svg>
