<?xml version="1.0" encoding="UTF-8" standalone="no"?>
<!-- Created with Inkscape (http://www.inkscape.org/) -->

<svg
   xmlns:dc="http://purl.org/dc/elements/1.1/"
   xmlns:cc="http://creativecommons.org/ns#"
   xmlns:rdf="http://www.w3.org/1999/02/22-rdf-syntax-ns#"
   xmlns:svg="http://www.w3.org/2000/svg"
   xmlns="http://www.w3.org/2000/svg"
   xmlns:sodipodi="http://sodipodi.sourceforge.net/DTD/sodipodi-0.dtd"
   xmlns:inkscape="http://www.inkscape.org/namespaces/inkscape"
   version="1.1"
   width="666.09003"
   height="434"
   id="svg3077"
   style="display:inline"
   inkscape:version="0.48.3.1 r9886"
   sodipodi:docname="guitar_prototype_2.svg">
  <sodipodi:namedview
     pagecolor="#ffffff"
     bordercolor="#666666"
     borderopacity="1"
     objecttolerance="10"
     gridtolerance="10"
     guidetolerance="11"
     inkscape:pageopacity="0"
     inkscape:pageshadow="2"
     inkscape:window-width="1215"
     inkscape:window-height="776"
     id="namedview3090"
     showgrid="false"
     inkscape:zoom="1.3692661"
     inkscape:cx="333.54501"
     inkscape:cy="148.58371"
     inkscape:window-x="65"
     inkscape:window-y="24"
     inkscape:window-maximized="1"
     inkscape:current-layer="svg3077"
     showguides="true"
     inkscape:guide-bbox="true"
     inkscape:snap-grids="false"
     inkscape:snap-to-guides="true">
    <inkscape:grid
       type="xygrid"
       id="grid3104"
       empspacing="5"
       visible="true"
       enabled="true"
       snapvisiblegridlinesonly="true" />
    <sodipodi:guide
       orientation="0.35184165,0.93605954"
       position="1329.6875,735.9375"
       id="guide3106" />
  </sodipodi:namedview>
  <metadata
     id="metadata3083">
    <rdf:RDF>
      <cc:Work
         rdf:about="">
        <dc:format>image/svg+xml</dc:format>
        <dc:type
           rdf:resource="http://purl.org/dc/dcmitype/StillImage" />
        <dc:title></dc:title>
      </cc:Work>
    </rdf:RDF>
  </metadata>
  <defs
     id="defs3081" />
  <g
     transform="matrix(0.99563921,0,0,0.99833033,0.20007828,0.87691)"
     id="guitar">
    <g
       id="guitar_strings"
       style="display:inline">
      <path
         style="fill:none;stroke:#000000;stroke-width:1px;stroke-linecap:butt;stroke-linejoin:miter"
         d="M 38.620268,1.1386401 71.695838,13.57093 99.725015,24.106405 125.46667,33.782057 154.22562,44.591834 182.8984,55.369223 209.38891,65.326354 235.15241,75.010216 261.36498,84.862875 288.04848,94.89254 313.04127,104.28671 336.55698,113.12569 361.1007,122.35106 382.69145,130.46649 404.43149,138.63804 426.96408,147.10748 446.45754,154.43459 467.21326,162.23616 485.78672,169.21746 504.0604,176.08608 522.07797,182.85844 669.2529,238.17786"
         id="guitar_stringB"
         inkscape:connector-curvature="0" />
      <path
         style="fill:none;stroke:#000000;stroke-width:1px;stroke-linecap:butt;stroke-linejoin:miter"
         d="M 30.403236,1.8296779 63.603947,14.640766 90.986311,25.206741 118.40559,35.786959 145.58444,46.274408 173.29901,56.968571 200.82805,67.59114 227.61884,77.928847 252.50329,87.530956 278.38729,97.518762 303.41938,107.17784 327.823,116.59441 352.09595,125.96057 375.20471,134.87749 397.22114,143.37293 419.33034,151.90416 437.70262,158.99343 459.81182,167.52466 478.66494,174.79948 497.81336,182.18824 514.18653,188.50612 668.88631,248.19979"
         id="guitar_stringG"
         inkscape:connector-curvature="0" />
      <path
         style="fill:none;stroke:#000000;stroke-width:1px;stroke-linecap:butt;stroke-linejoin:miter"
         d="M 23.946436,2.4713061 57.594132,15.820552 85.127072,26.743855 112.77544,37.712953 138.6924,47.995138 166.40425,58.98942 192.86789,69.488494 218.79318,79.773984 245.22196,90.25923 270.9464,100.46504 295.82709,110.33609 319.89887,119.88623 344.7768,129.7562 367.36742,138.71871 388.80613,147.22421 412.16805,156.49272 432.22741,164.45099 452.75817,172.59627 472.24432,180.32713 490.58407,187.60316 508.72297,194.79951 669.44977,258.56559"
         id="guitar_stringD"
         inkscape:connector-curvature="0" />
      <path
         style="fill:none;stroke:#000000;stroke-width:1px;stroke-linecap:butt;stroke-linejoin:miter"
         d="M 13.648078,3.4963297 47.282513,17.017286 75.242053,28.256949 102.74873,39.314561 129.54204,50.085405 156.81093,61.047428 183.79543,71.895126 210.77992,82.742823 237.80865,93.608302 261.03279,102.94435 286.11499,113.02733 312.62154,123.68289 335.94126,133.05736 359.3076,142.45057 381.15163,151.23181 404.13798,160.47226 424.45969,168.64154 446.06356,177.32624 466.28968,185.45709 483.80456,192.49802 501.03268,199.42368 669.2643,267.05236"
         id="guitar_stringA"
         inkscape:connector-curvature="0" />
      <path
         style="fill:none;stroke:#000000;stroke-width:1px;stroke-linecap:butt;stroke-linejoin:miter"
         d="M 4.5839225,4.6173784 36.052971,17.453252 66.066343,29.695373 93.359759,40.828053 119.80848,51.616192 147.29881,62.82919 173.27089,73.422915 201.30042,84.855847 227.49519,95.540399 253.32741,106.07708 279.38783,116.70683 302.89392,126.2947 327.35328,136.2714 350.74527,145.81273 374.72799,155.59502 396.41035,164.43901 417.45044,173.02103 440.67129,182.49256 459.15705,190.03269 479.35245,198.27017 496.71931,205.35392 669.11039,275.67032"
         id="guitar_stringE"
         inkscape:connector-curvature="0" />
      <path
         style="fill:none;stroke:#000000;stroke-width:1px;stroke-linecap:butt;stroke-linejoin:miter"
         d="M 44.778306,-0.30374604 74.015699,10.476701 102.77202,21.079768 129.7754,31.036486 158.65994,41.686826 186.45412,51.935132 213.9919,62.088893 239.45562,71.477909 265.4753,81.071917 291.46322,90.654214 317.86753,100.39004 340.08178,108.58091 367.5231,118.69911 387.18224,125.94785 409.17184,134.05588 430.68037,141.98653 451.55806,149.68458 471.34541,156.98059 489.35825,163.62231 507.76708,170.41003 525.14908,176.81914 669.68975,230.11435"
         id="guitar_stringe"
         inkscape:connector-curvature="0" />
    </g>
    <g
       id="body">
      <path
         d="M 33.910715,19.5465 72.597241,13.328093"
         id="path3937-4"
         style="fill:#800080;stroke:#ff0000;stroke-width:1px;stroke-linecap:butt;stroke-linejoin:miter;stroke-opacity:1;display:inline"
         inkscape:connector-curvature="0" />
      <path
         d="M 299.90166,128.24856 338.61575,112.25026"
         id="path3953-3"
         style="fill:#800080;stroke:#ff0000;stroke-width:1px;stroke-linecap:butt;stroke-linejoin:miter;stroke-opacity:1;display:inline"
         inkscape:connector-curvature="0" />
      <path
         d="M 62.10906,30.878945 100.44203,23.865043"
         id="path3937"
         style="fill:#800080;stroke:#ff0000;stroke-width:1px;stroke-linecap:butt;stroke-linejoin:miter;stroke-opacity:1;display:inline"
         inkscape:connector-curvature="0" />
      <path
         d="M 90.045798,42.17444 126.74794,33.746324"
         id="path3939"
         style="fill:#800080;stroke:#ff0000;stroke-width:1px;stroke-linecap:butt;stroke-linejoin:miter;stroke-opacity:1;display:inline"
         inkscape:connector-curvature="0" />
      <path
         d="M 116.22102,53.072152 155.40188,44.175333"
         id="path3941"
         style="fill:#800080;stroke:#ff0000;stroke-width:1px;stroke-linecap:butt;stroke-linejoin:miter;stroke-opacity:1;display:inline"
         inkscape:connector-curvature="0" />
      <path
         d="M 142.88397,63.975959 184.17909,54.930981"
         id="path3943"
         style="fill:#800080;stroke:#ff0000;stroke-width:1px;stroke-linecap:butt;stroke-linejoin:miter;stroke-opacity:1;display:inline"
         inkscape:connector-curvature="0" />
      <path
         d="M 169.80673,74.923997 211.46627,65.229001"
         id="path3945"
         style="fill:#800080;stroke:#ff0000;stroke-width:1px;stroke-linecap:butt;stroke-linejoin:miter;stroke-opacity:1;display:inline"
         inkscape:connector-curvature="0" />
      <path
         d="M 197.00083,86.371146 237.3943,74.43871"
         id="path3947"
         style="fill:#800080;stroke:#ff0000;stroke-width:1px;stroke-linecap:butt;stroke-linejoin:miter;stroke-opacity:1;display:inline"
         inkscape:connector-curvature="0" />
      <path
         d="M 224.32406,97.222088 263.56849,84.31739"
         id="path3949"
         style="fill:#800080;stroke:#ff0000;stroke-width:1px;stroke-linecap:butt;stroke-linejoin:miter;stroke-opacity:1;display:inline"
         inkscape:connector-curvature="0" />
      <path
         d="M 249.98091,107.37375 289.57889,94.115487"
         id="path3951"
         style="fill:#800080;stroke:#ff0000;stroke-width:1px;stroke-linecap:butt;stroke-linejoin:miter;stroke-opacity:1;display:inline"
         inkscape:connector-curvature="0" />
      <path
         d="M 274.74607,117.8408 314.78598,103.5219"
         id="path3953"
         style="fill:#800080;stroke:#ff0000;stroke-width:1px;stroke-linecap:butt;stroke-linejoin:miter;stroke-opacity:1;display:inline"
         inkscape:connector-curvature="0" />
      <path
         d="M 324.22444,138.09906 363.46886,121.74721"
         id="path3955"
         style="fill:#800080;stroke:#ff0000;stroke-width:1px;stroke-linecap:butt;stroke-linejoin:miter;stroke-opacity:1;display:inline"
         inkscape:connector-curvature="0" />
      <path
         d="M 347.76258,147.91017 385.3952,129.47685"
         id="path3957"
         style="fill:#800080;stroke:#ff0000;stroke-width:1px;stroke-linecap:butt;stroke-linejoin:miter;stroke-opacity:1;display:inline"
         inkscape:connector-curvature="0" />
      <path
         d="M 370.7851,157.30097 406.93594,137.85553"
         id="path3959"
         style="fill:#800080;stroke:#ff0000;stroke-width:1px;stroke-linecap:butt;stroke-linejoin:miter;stroke-opacity:1;display:inline"
         inkscape:connector-curvature="0" />
      <path
         d="M 393.32064,166.70046 428.92553,145.97424"
         id="path3961"
         style="fill:#800080;stroke:#ff0000;stroke-width:1px;stroke-linecap:butt;stroke-linejoin:miter;stroke-opacity:1;display:inline"
         inkscape:connector-curvature="0" />
      <path
         d="M 415.09361,175.24811 448.76436,153.14061"
         id="path3963"
         style="fill:#800080;stroke:#ff0000;stroke-width:1px;stroke-linecap:butt;stroke-linejoin:miter;stroke-opacity:1;display:inline"
         inkscape:connector-curvature="0" />
      <path
         d="M 437.10312,184.4353 469.06677,160.58776"
         id="path3965"
         style="fill:#800080;stroke:#ff0000;stroke-width:1px;stroke-linecap:butt;stroke-linejoin:miter;stroke-opacity:1;display:inline"
         inkscape:connector-curvature="0" />
      <path
         d="M 456.0728,192.03929 488.4957,167.82259"
         id="path3967"
         style="fill:#800080;stroke:#ff0000;stroke-width:1px;stroke-linecap:butt;stroke-linejoin:miter;stroke-opacity:1;display:inline"
         inkscape:connector-curvature="0" />
      <path
         d="M 476.06759,200.16664 506.01392,174.41098"
         id="path3969"
         style="fill:#800080;stroke:#ff0000;stroke-width:1px;stroke-linecap:butt;stroke-linejoin:miter;stroke-opacity:1;display:inline"
         inkscape:connector-curvature="0" />
      <path
         d="M 494.01213,207.49506 524.10751,181.35292"
         id="path3971"
         style="fill:#800080;stroke:#ff0000;stroke-width:1px;stroke-linecap:butt;stroke-linejoin:miter;stroke-opacity:1;display:inline"
         inkscape:connector-curvature="0" />
      <path
         d="M 35.009339,20.28003 74.922766,13.863121 71.457244,12.537607 31.608724,18.913581 M 63.056836,31.642461 103.52924,24.387086 98.806019,23.061571 60.075455,30.276012 M 90.531299,43.036597 129.03735,34.384277 125.939,32.825522 87.863315,41.850823 M 116.81589,53.807349 157.92261,44.815246 153.87122,43.431847 113.75265,52.621574 M 143.96462,64.776227 186.39345,55.56443 182.78818,54.099171 141.12298,63.270034 M 170.47201,75.744108 214.04909,65.763862 210.39296,64.28165 168.00166,74.459519 M 197.94237,87.00893 239.1479,75.0524 235.88703,73.767816 195.76846,85.92197 M 224.81984,97.878493 265.5313,84.736195 262.86332,83.451611 222.54711,96.791533 M 250.41272,108.35279 291.42063,94.617617 288.25857,93.333033 247.54711,107.0682 M 275.80797,118.7283 316.91469,104.00496 313.75264,102.62156 272.74473,117.24608 M 301.00561,129.00497 340.33368,112.79943 337.27043,111.61366 297.94237,127.8192 M 325.11629,138.98521 365.43249,122.18678 361.77636,121.09983 322.25067,137.70062 M 349.32577,148.86663 386.97399,130.28955 383.51549,128.70852 345.86727,147.38442 M 372.15186,158.05636 408.81194,138.39232 405.25462,137.20655 369.38506,156.77177 M 394.87913,167.34489 430.45225,146.39627 427.48783,145.40812 391.81589,165.96149 M 416.1242,176.13936 450.61036,153.41207 447.64593,152.52275 413.25858,174.85477 M 438.25857,184.73619 470.57083,161.02076 467.90284,160.13144 435.78822,184.04449 M 457.72498,192.74014 489.74079,168.13539 487.56687,167.34488 454.26648,191.65318 M 477.23881,200.7441 507.47596,174.65714 505.10442,173.66899 474.76845,199.75595 M 495.22498,208.25398 526.05502,181.57413 523.28822,180.38836 491.96411,207.16702 M 300.08407,311.88164 C 301.71004,328.36974 306.58794,337.36325 308.67846,341.86 310.76898,346.35676 318.89881,356.09972 325.40268,362.84486 331.90653,369.58999 341.89461,377.83404 354.43777,385.32863 366.98094,392.82322 379.98866,399.56836 394.39006,405.56403 408.79148,411.5597 432.71639,419.05429 441.77534,421.05285 450.83429,423.05141 481.26307,429.79654 493.10939,432.54456 504.95571,435.29257 507.97531,436.60413 507.97531,436.60413 M 332.3711,209.58049 298.92268,314.62966 C 298.45811,333.36613 307.05249,347.35604 310.07214,352.35243 313.09179,357.34883 314.71776,360.34666 318.89881,365.59287 323.07987,370.83908 335.15847,381.83115 342.82373,387.32719 350.48899,392.82322 368.14234,403.06583 377.20129,407.56258 386.26024,412.05934 408.32691,420.30339 418.08271,422.55177 427.8385,424.80014 475.45605,436.54166 475.45605,436.54166 L 669.17823,436.54166 669.41047,299.14083 M 593.82109,204.49135 C 585.92896,201.30539 571.21715,199.68264 565.05202,199.38735 559.42449,199.11782 548.9015,198.65044 535.12985,200.86223 M 669.55904,238.9808 C 663.97465,233.41635 654.20192,228.64682 646.89289,224.76054 639.58391,220.87426 623.72822,214.53004 618.80077,212.67522 613.8734,210.8204 598.0036,205.47807 592.8298,204.1532 M 669.59888,234.37383 C 663.84994,228.25325 651.98458,222.55242 644.59346,219.01944 637.20232,215.48646 624.06254,210.36363 618.8066,208.42049 613.55071,206.47735 599.41718,202.10398 596.78924,201.39739 594.16129,200.69078 584.26655,198.40062 579.33912,197.34073 574.41173,196.28083 563.76379,194.94969 558.92098,195.02286 555.46818,195.07506 541.14818,195.30926 541.14818,195.30926 M 669.39478,285.70451 C 669.39478,285.70451 663.15338,287.02938 655.59799,287.38268 640.65148,287.8243 628.57932,286.41111 618.97085,284.29132 609.36238,282.17153 597.20806,277.7553 592.77345,276.16546 588.33877,274.57561 569.69668,266.44975 562.5519,262.65179 555.40712,258.85383 542.51375,250.63965 535.94383,244.54524 529.37398,238.45085 523.54317,230.85493 522.6398,227.76357 521.73644,224.67221 519.76551,217.87123 523.54317,213.10169 533.36355,201.31622 560.42259,203.09808 566.609,203.49574 607.75304,208.63341 645.62557,229.26509 651.53848,232.62143 659.15005,236.74679 664.90193,242.98442 669.62709,247.069 M 513.68835,220.60929 C 514.3453,230.14834 522.06494,237.74426 526.66387,242.86708 531.26281,247.98991 541.77464,255.76248 551.62946,261.41525 561.48428,267.06802 581.53412,276.44298 588.92526,279.09272 596.31639,281.74246 613.72178,288.01091 623.90516,289.95405 634.08849,291.89719 646.19121,292.62154 654.89631,292.7982 663.60141,292.97484 669.23053,291.62226 669.23053,291.62226 M 504.62145,223.0695 C 505.55057,229.4399 517.28077,241.93088 518.79055,243.67962 520.3004,245.42836 531.91441,255.92078 535.6309,258.41898 544.57371,265.0392 558.97516,272.28397 561.18181,273.28325 563.38845,274.28253 582.31937,282.15185 585.80355,283.40095 589.2878,284.65005 605.66364,290.27099 609.14782,291.14536 612.63206,292.01974 631.09837,295.76703 634.3503,296.39157 637.60224,297.01612 654.791,298.76487 657.34607,298.88977 659.90115,299.01468 669.42463,299.2645 669.42463,299.2645 L 669.65694,200.96046 M 6.3284097,13.311454 0.57975477,11.191668 0.49763477,7.4820323 3.8647037,8.0119813 M 45.501392,2.8891531 5.9177937,8.6302543 M 542.86254,187.64056 45.008653,2.5358531 44.926526,0.50438841 3.9468237,4.4789961 3.8647067,8.1886323 6.6569107,9.0718753 M 510.98354,214.81296 C 510.40868,214.81296 6.4979357,8.8399973 6.4979357,8.8399973 L 6.5800657,12.902932 6.5800657,13.432876 368.49028,165.28893 M 669.52619,403.05482 C 654.89249,386.06708 623.53458,362.83384 623.53458,362.83384 618.42443,358.58691 593.33808,344.59701 590.783,343.09809 588.22793,341.59917 572.2005,333.60495 566.85805,331.85621 561.5156,330.10746 535.96469,323.86197 530.85455,323.61216 525.74435,323.36233 490.20539,316.36738 486.2566,316.11757 482.30787,315.86775 466.74506,310.87136 463.72538,310.12189 460.70575,309.37244 447.93026,304.37604 444.21378,303.12694 440.49729,301.87785 423.07627,293.63379 416.10785,290.63596 409.13939,287.63812 393.34433,279.64388 387.07271,276.14642 380.80115,272.64894 377.31692,271.15002 372.90363,268.65182 368.49028,266.15363 358.03763,258.15939 353.85659,254.16228 349.67554,250.16516 347.12042,247.41715 343.63623,242.67058 340.152,237.924 338.06147,234.67635 336.20327,231.17887 334.34499,227.68139 332.25447,211.19329 332.25447,211.19329 335.2741,190.70808 349.67554,177.96728 354.32114,174.21998 358.96679,170.47269 368.25797,165.22648 368.25797,165.22648 L 505.30364,223.18464 509.02013,224.93338 542.93317,193.95573 542.83697,187.84402 510.87846,214.69077 509.2525,224.18392 M 669.89289,201.03432 C 664.96546,201.38762 642.62781,188.84552 642.62781,188.84552 630.47356,182.48616 605.34371,166.76438 605.34371,166.76438 605.34371,166.76438 574.79366,151.57254 565.59586,148.03956 556.398,144.50658 540.63027,142.03348 539.64475,141.85684 538.65929,141.6802 534.88162,141.32689 531.43241,141.32689 527.98319,141.32689 525.35525,143.09338 524.69823,143.44668 524.04128,143.79997 523.38426,148.2162 524.04128,151.04259 524.69823,153.86898 527.81893,155.98877 528.64021,159.34511 529.46142,162.70144 528.96872,164.82123 528.80447,166.05778 528.64021,167.29432 524.20553,172.2405 521.74178,174.00698 519.2781,175.77348 513.36519,177.18667 513.36519,177.18667 M 524.69823,143.44668 519.93511,148.39286 C 519.93511,148.39286 515.82888,157.57861 514.35065,160.7583 512.87243,163.93798 508.10924,174.71359 508.10924,174.71359 L 513.85795,177.01003 M 521.24908,146.97966 C 517.47135,152.54412 519.52445,157.49029 519.77086,159.08013 520.01721,160.66998 521.82394,161.64155 522.72731,164.20295 523.63067,166.76438 523.95912,166.58772 523.30216,169.85574 522.64515,173.12375 513.94005,177.09836 513.94005,177.09836"
         id="path4048-31"
         style="fill:none;stroke:#000000;stroke-width:1px;stroke-linecap:butt;stroke-linejoin:miter;stroke-opacity:1;display:inline"
         inkscape:connector-curvature="0" />
    </g>
  </g>
</svg>
