<?xml version="1.0" encoding="UTF-8" standalone="no"?>
<!-- Created with Inkscape (http://www.inkscape.org/) -->

<svg
   xmlns:dc="http://purl.org/dc/elements/1.1/"
   xmlns:cc="http://creativecommons.org/ns#"
   xmlns:rdf="http://www.w3.org/1999/02/22-rdf-syntax-ns#"
   xmlns:svg="http://www.w3.org/2000/svg"
   xmlns="http://www.w3.org/2000/svg"
   xmlns:sodipodi="http://sodipodi.sourceforge.net/DTD/sodipodi-0.dtd"
   xmlns:inkscape="http://www.inkscape.org/namespaces/inkscape"
   version="1.1"
   width="1280"
   height="800"
   id="svg3077"
   style="display:inline"
   inkscape:version="0.48.3.1 r9886"
   sodipodi:docname="guitar_prototype_2.svg">
  <sodipodi:namedview
     pagecolor="#ffffff"
     bordercolor="#666666"
     borderopacity="1"
     objecttolerance="10"
     gridtolerance="10"
     guidetolerance="11"
     inkscape:pageopacity="0"
     inkscape:pageshadow="2"
     inkscape:window-width="1215"
     inkscape:window-height="776"
     id="namedview3090"
     showgrid="false"
     inkscape:zoom="3.6203867"
     inkscape:cx="657.19492"
     inkscape:cy="566.63413"
     inkscape:window-x="65"
     inkscape:window-y="24"
     inkscape:window-maximized="1"
     inkscape:current-layer="svg3077"
     showguides="true"
     inkscape:guide-bbox="true"
     inkscape:snap-grids="false"
     inkscape:snap-to-guides="true">
    <inkscape:grid
       type="xygrid"
       id="grid3104"
       empspacing="5"
       visible="true"
       enabled="true"
       snapvisiblegridlinesonly="true" />
    <sodipodi:guide
       orientation="0.35184165,0.93605954"
       position="1329.6875,735.9375"
       id="guide3106" />
  </sodipodi:namedview>
  <metadata
     id="metadata3083">
    <rdf:RDF>
      <cc:Work
         rdf:about="">
        <dc:format>image/svg+xml</dc:format>
        <dc:type
           rdf:resource="http://purl.org/dc/dcmitype/StillImage" />
        <dc:title />
      </cc:Work>
    </rdf:RDF>
  </metadata>
  <defs
     id="defs3081" />
  <g
     transform="translate(0.01040781,0.12132021)"
     id="guitar">
    <g
       id="guitar_strings"
       style="display: inline;">
      <path
         style="fill:none;stroke:#000000;stroke-width:1px;stroke-linecap:butt;stroke-linejoin:miter;"
         d="M 38.620268,1.1386401 71.695838,13.57093 99.725015,24.106405 125.46667,33.782057 154.22562,44.591834 182.8984,55.369223 209.38891,65.326354 235.15241,75.010216 261.36498,84.862875 288.04848,94.89254 313.04127,104.28671 336.55698,113.12569 361.1007,122.35106 382.69145,130.46649 404.43149,138.63804 426.96408,147.10748 446.45754,154.43459 467.21326,162.23616 485.78672,169.21746 504.0604,176.08608 522.07797,182.85844 669.2529,238.17786"
         id="guitar_stringB"
         inkscape:connector-curvature="0" />
      <path
         style="fill:none;stroke:#000000;stroke-width:1px;stroke-linecap:butt;stroke-linejoin:miter;"
         d="M 30.403236,1.8296779 63.603947,14.640766 90.986311,25.206741 118.40559,35.786959 145.58444,46.274408 173.29901,56.968571 200.82805,67.59114 227.61884,77.928847 252.50329,87.530956 278.38729,97.518762 303.41938,107.17784 327.823,116.59441 352.09595,125.96057 375.20471,134.87749 397.22114,143.37293 419.33034,151.90416 437.70262,158.99343 459.81182,167.52466 478.66494,174.79948 497.81336,182.18824 514.18653,188.50612 668.88631,248.19979"
         id="guitar_stringG"
         inkscape:connector-curvature="0" />
      <path
         style="fill:none;stroke:#000000;stroke-width:1px;stroke-linecap:butt;stroke-linejoin:miter;"
         d="M 23.946436,2.4713061 57.594132,15.820552 85.127072,26.743855 112.77544,37.712953 138.6924,47.995138 166.40425,58.98942 192.86789,69.488494 218.79318,79.773984 245.22196,90.25923 270.9464,100.46504 295.82709,110.33609 319.89887,119.88623 344.7768,129.7562 367.36742,138.71871 388.80613,147.22421 412.16805,156.49272 432.22741,164.45099 452.75817,172.59627 472.24432,180.32713 490.58407,187.60316 508.72297,194.79951 669.44977,258.56559"
         id="guitar_stringD"
         inkscape:connector-curvature="0" />
      <path
         style="fill:none;stroke:#000000;stroke-width:1px;stroke-linecap:butt;stroke-linejoin:miter;"
         d="M 13.648078,3.4963297 47.282513,17.017286 75.242053,28.256949 102.74873,39.314561 129.54204,50.085405 156.81093,61.047428 183.79543,71.895126 210.77992,82.742823 237.80865,93.608302 261.03279,102.94435 286.11499,113.02733 312.62154,123.68289 335.94126,133.05736 359.3076,142.45057 381.15163,151.23181 404.13798,160.47226 424.45969,168.64154 446.06356,177.32624 466.28968,185.45709 483.80456,192.49802 501.03268,199.42368 669.2643,267.05236"
         id="guitar_stringA"
         inkscape:connector-curvature="0" />
      <path
         style="fill:none;stroke:#000000;stroke-width:1px;stroke-linecap:butt;stroke-linejoin:miter;"
         d="M 4.5839225,4.6173784 36.052971,17.453252 66.066343,29.695373 93.359759,40.828053 119.80848,51.616192 147.29881,62.82919 173.27089,73.422915 201.30042,84.855847 227.49519,95.540399 253.32741,106.07708 279.38783,116.70683 302.89392,126.2947 327.35328,136.2714 350.74527,145.81273 374.72799,155.59502 396.41035,164.43901 417.45044,173.02103 440.67129,182.49256 459.15705,190.03269 479.35245,198.27017 496.71931,205.35392 669.11039,275.67032"
         id="guitar_stringE"
         inkscape:connector-curvature="0" />
      <path
         style="fill:none;stroke:#000000;stroke-width:1px;stroke-linecap:butt;stroke-linejoin:miter"
         d="M 44.778306,-0.30374604 74.015699,10.476701 102.77202,21.079768 129.7754,31.036486 158.65994,41.686826 186.45412,51.935132 213.9919,62.088893 239.45562,71.477909 265.4753,81.071917 291.46322,90.654214 317.86753,100.39004 340.08178,108.58091 367.5231,118.69911 387.18224,125.94785 409.17184,134.05588 430.68037,141.98653 451.55806,149.68458 471.34541,156.98059 489.35825,163.62231 507.76708,170.41003 525.14908,176.81914 669.68975,230.11435"
         id="guitar_stringe"
         inkscape:connector-curvature="0" />
    </g>
    <g
       id="body">
      <path
         d="M 33.910715,19.5465 72.597241,13.328093"
         id="path3937-4"
         style="fill:#800080;stroke:#ff0000;stroke-width:1px;stroke-linecap:butt;stroke-linejoin:miter;stroke-opacity:1;display:inline"
         inkscape:connector-curvature="0" />
      <path
         d="m 299.90166,128.24856 38.71409,-15.9983"
         id="path3953-3"
         style="fill:#800080;stroke:#ff0000;stroke-width:1px;stroke-linecap:butt;stroke-linejoin:miter;stroke-opacity:1;display:inline"
         inkscape:connector-curvature="0" />
      <path
         d="m 62.10906,30.878945 38.33297,-7.013902"
         id="path3937"
         style="fill:#800080;stroke:#ff0000;stroke-width:1px;stroke-linecap:butt;stroke-linejoin:miter;stroke-opacity:1;display:inline"
         inkscape:connector-curvature="0" />
      <path
         d="M 90.045798,42.17444 126.74794,33.746324"
         id="path3939"
         style="fill:#800080;stroke:#ff0000;stroke-width:1px;stroke-linecap:butt;stroke-linejoin:miter;stroke-opacity:1;display:inline"
         inkscape:connector-curvature="0" />
      <path
         d="m 116.22102,53.072152 39.18086,-8.896819"
         id="path3941"
         style="fill:#800080;stroke:#ff0000;stroke-width:1px;stroke-linecap:butt;stroke-linejoin:miter;stroke-opacity:1;display:inline"
         inkscape:connector-curvature="0" />
      <path
         d="m 142.88397,63.975959 41.29512,-9.044978"
         id="path3943"
         style="fill:#800080;stroke:#ff0000;stroke-width:1px;stroke-linecap:butt;stroke-linejoin:miter;stroke-opacity:1;display:inline"
         inkscape:connector-curvature="0" />
      <path
         d="m 169.80673,74.923997 41.65954,-9.694996"
         id="path3945"
         style="fill:#800080;stroke:#ff0000;stroke-width:1px;stroke-linecap:butt;stroke-linejoin:miter;stroke-opacity:1;display:inline"
         inkscape:connector-curvature="0" />
      <path
         d="M 197.00083,86.371146 237.3943,74.43871"
         id="path3947"
         style="fill:#800080;stroke:#ff0000;stroke-width:1px;stroke-linecap:butt;stroke-linejoin:miter;stroke-opacity:1;display:inline"
         inkscape:connector-curvature="0" />
      <path
         d="M 224.32406,97.222088 263.56849,84.31739"
         id="path3949"
         style="fill:#800080;stroke:#ff0000;stroke-width:1px;stroke-linecap:butt;stroke-linejoin:miter;stroke-opacity:1;display:inline"
         inkscape:connector-curvature="0" />
      <path
         d="M 249.98091,107.37375 289.57889,94.115487"
         id="path3951"
         style="fill:#800080;stroke:#ff0000;stroke-width:1px;stroke-linecap:butt;stroke-linejoin:miter;stroke-opacity:1;display:inline"
         inkscape:connector-curvature="0" />
      <path
         d="m 274.74607,117.8408 40.03991,-14.3189"
         id="path3953"
         style="fill:#800080;stroke:#ff0000;stroke-width:1px;stroke-linecap:butt;stroke-linejoin:miter;stroke-opacity:1;display:inline"
         inkscape:connector-curvature="0" />
      <path
         d="m 324.22444,138.09906 39.24442,-16.35185"
         id="path3955"
         style="fill:#800080;stroke:#ff0000;stroke-width:1px;stroke-linecap:butt;stroke-linejoin:miter;stroke-opacity:1;display:inline"
         inkscape:connector-curvature="0" />
      <path
         d="M 347.76258,147.91017 385.3952,129.47685"
         id="path3957"
         style="fill:#800080;stroke:#ff0000;stroke-width:1px;stroke-linecap:butt;stroke-linejoin:miter;stroke-opacity:1;display:inline"
         inkscape:connector-curvature="0" />
      <path
         d="m 370.7851,157.30097 36.15084,-19.44544"
         id="path3959"
         style="fill:#800080;stroke:#ff0000;stroke-width:1px;stroke-linecap:butt;stroke-linejoin:miter;stroke-opacity:1;display:inline"
         inkscape:connector-curvature="0" />
      <path
         d="m 393.32064,166.70046 35.60489,-20.72622"
         id="path3961"
         style="fill:#800080;stroke:#ff0000;stroke-width:1px;stroke-linecap:butt;stroke-linejoin:miter;stroke-opacity:1;display:inline"
         inkscape:connector-curvature="0" />
      <path
         d="m 415.09361,175.24811 33.67075,-22.1075"
         id="path3963"
         style="fill:#800080;stroke:#ff0000;stroke-width:1px;stroke-linecap:butt;stroke-linejoin:miter;stroke-opacity:1;display:inline"
         inkscape:connector-curvature="0" />
      <path
         d="m 437.10312,184.4353 31.96365,-23.84754"
         id="path3965"
         style="fill:#800080;stroke:#ff0000;stroke-width:1px;stroke-linecap:butt;stroke-linejoin:miter;stroke-opacity:1;display:inline"
         inkscape:connector-curvature="0" />
      <path
         d="m 456.0728,192.03929 32.4229,-24.2167"
         id="path3967"
         style="fill:#800080;stroke:#ff0000;stroke-width:1px;stroke-linecap:butt;stroke-linejoin:miter;stroke-opacity:1;display:inline"
         inkscape:connector-curvature="0" />
      <path
         d="m 476.06759,200.16664 29.94633,-25.75566"
         id="path3969"
         style="fill:#800080;stroke:#ff0000;stroke-width:1px;stroke-linecap:butt;stroke-linejoin:miter;stroke-opacity:1;display:inline"
         inkscape:connector-curvature="0" />
      <path
         d="m 494.01213,207.49506 30.09538,-26.14214"
         id="path3971"
         style="fill:#800080;stroke:#ff0000;stroke-width:1px;stroke-linecap:butt;stroke-linejoin:miter;stroke-opacity:1;display:inline"
         inkscape:connector-curvature="0" />
      <path
         d="m 35.009339,20.28003 39.913427,-6.416909 -3.465522,-1.325514 -39.84852,6.375974 m 31.448112,12.72888 40.472404,-7.255375 -4.723221,-1.325515 -38.730564,7.214441 m 30.455844,12.760585 38.506051,-8.65232 -3.09835,-1.558755 -38.075685,9.025301 m 28.952575,11.956526 41.10672,-8.992103 -4.05139,-1.383399 -40.11857,9.189727 m 30.21197,12.154653 42.42883,-9.211797 -3.60527,-1.465259 -41.6652,9.170863 m 29.34903,12.474074 43.57708,-9.980246 -3.65613,-1.482212 -42.3913,10.177869 M 197.94237,87.00893 239.1479,75.0524 235.88703,73.767816 195.76846,85.92197 m 29.05138,11.956523 40.71146,-13.142298 -2.66798,-1.284584 -40.31621,13.339922 m 27.86561,11.561257 41.00791,-13.735173 -3.16206,-1.284584 -40.71146,13.735167 m 28.26086,11.6601 41.10672,-14.72334 -3.16205,-1.3834 -41.00791,14.62452 m 28.26088,11.75889 39.32807,-16.20554 -3.06325,-1.18577 -39.32806,16.20554 m 27.17392,11.16601 40.3162,-16.79843 -3.65613,-1.08695 -39.52569,16.60079 m 27.0751,11.16601 37.64822,-18.57708 -3.4585,-1.58103 -37.64822,18.6759 m 26.28459,10.67194 36.66008,-19.66404 -3.55732,-1.18577 -35.86956,19.56522 m 25.49407,10.57312 35.57312,-20.94862 -2.96442,-0.98815 -35.67194,20.55337 m 24.30831,10.17787 34.48616,-22.72729 -2.96443,-0.88932 -34.38735,22.33202 m 24.99999,9.88142 32.31226,-23.71543 -2.66799,-0.88932 -32.11462,23.91305 m 21.93676,8.69565 32.01581,-24.60475 -2.17392,-0.79051 -33.30039,24.3083 m 22.97233,9.09092 30.23715,-26.08696 -2.37154,-0.98815 -30.33597,26.08696 m 20.45653,8.49803 30.83004,-26.67985 -2.7668,-1.18577 -31.32411,26.77866 M 300.08407,311.88164 c 1.62597,16.4881 6.50387,25.48161 8.59439,29.97836 2.09052,4.49676 10.22035,14.23972 16.72422,20.98486 6.50385,6.74513 16.49193,14.98918 29.03509,22.48377 12.54317,7.49459 25.55089,14.23973 39.95229,20.2354 14.40142,5.99567 38.32633,13.49026 47.38528,15.48882 9.05895,1.99856 39.48773,8.74369 51.33405,11.49171 11.84632,2.74801 14.86592,4.05957 14.86592,4.05957 M 332.3711,209.58049 298.92268,314.62966 c -0.46457,18.73647 8.12981,32.72638 11.14946,37.72277 3.01965,4.9964 4.64562,7.99423 8.82667,13.24044 4.18106,5.24621 16.25966,16.23828 23.92492,21.73432 7.66526,5.49603 25.31861,15.73864 34.37756,20.23539 9.05895,4.49676 31.12562,12.74081 40.88142,14.98919 9.75579,2.24837 57.37334,13.98989 57.37334,13.98989 l 193.72218,0 0.23224,-137.40083 m -75.58938,-94.64948 c -7.89213,-3.18596 -22.60394,-4.80871 -28.76907,-5.104 -5.62753,-0.26953 -16.15052,-0.73691 -29.92217,1.47488 m 134.42919,38.11857 c -5.58439,-5.56445 -15.35712,-10.33398 -22.66615,-14.22026 -7.30898,-3.88628 -23.16467,-10.2305 -28.09212,-12.08532 -4.92737,-1.85482 -20.79717,-7.19715 -25.97097,-8.52202 m 76.76908,30.22063 c -5.74894,-6.12058 -17.6143,-11.82141 -25.00542,-15.35439 -7.39114,-3.53298 -20.53092,-8.65581 -25.78686,-10.59895 -5.25589,-1.94314 -19.38942,-6.31651 -22.01736,-7.0231 -2.62795,-0.70661 -12.52269,-2.99677 -17.45012,-4.05666 -4.92739,-1.0599 -15.57533,-2.39104 -20.41814,-2.31787 -3.4528,0.0522 -17.7728,0.2864 -17.7728,0.2864 m 128.2466,90.39525 c 0,0 -6.2414,1.32487 -13.79679,1.67817 -14.94651,0.44162 -27.01867,-0.97157 -36.62714,-3.09136 -9.60847,-2.11979 -21.76279,-6.53602 -26.1974,-8.12586 -4.43468,-1.58985 -23.07677,-9.71571 -30.22155,-13.51367 -7.14478,-3.79796 -20.03815,-12.01214 -26.60807,-18.10655 -6.56985,-6.09439 -12.40066,-13.69031 -13.30403,-16.78167 -0.90336,-3.09136 -2.87429,-9.89234 0.90337,-14.66188 9.82038,-11.78547 36.87942,-10.00361 43.06583,-9.60595 41.14404,5.13767 79.01657,25.76935 84.92948,29.12569 7.61157,4.12536 13.36345,10.36299 18.08861,14.44757 M 513.68835,220.60929 c 0.65695,9.53905 8.37659,17.13497 12.97552,22.25779 4.59894,5.12283 15.11077,12.8954 24.96559,18.54817 9.85482,5.65277 29.90466,15.02773 37.2958,17.67747 7.39113,2.64974 24.79652,8.91819 34.9799,10.86133 10.18333,1.94314 22.28605,2.66749 30.99115,2.84415 8.7051,0.17664 14.33422,-1.17594 14.33422,-1.17594 M 504.62145,223.0695 c 0.92912,6.3704 12.65932,18.86138 14.1691,20.61012 1.50985,1.74874 13.12386,12.24116 16.84035,14.73936 8.94281,6.62022 23.34426,13.86499 25.55091,14.86427 2.20664,0.99928 21.13756,8.8686 24.62174,10.1177 3.48425,1.2491 19.86009,6.87004 23.34427,7.74441 3.48424,0.87438 21.95055,4.62167 25.20248,5.24621 3.25194,0.62455 20.4407,2.3733 22.99577,2.4982 2.55508,0.12491 12.07856,0.37473 12.07856,0.37473 l 0.23231,-98.30404 M 6.3284097,13.311454 0.57975477,11.191668 0.49763477,7.4820323 3.8647037,8.0119813 M 45.501392,2.8891531 5.9177937,8.6302543 M 542.86254,187.64056 45.008653,2.5358531 44.926526,0.50438841 3.9468237,4.4789961 3.8647067,8.1886323 6.6569107,9.0718753 M 510.98354,214.81296 C 510.40868,214.81296 6.4979357,8.8399973 6.4979357,8.8399973 l 0.08213,4.0629347 0,0.529944 L 368.49028,165.28893 m 301.03591,237.76589 c -14.6337,-16.98774 -45.99161,-40.22098 -45.99161,-40.22098 -5.11015,-4.24693 -30.1965,-18.23683 -32.75158,-19.73575 -2.55507,-1.49892 -18.5825,-9.49314 -23.92495,-11.24188 -5.34245,-1.74875 -30.89336,-7.99424 -36.0035,-8.24405 -5.1102,-0.24983 -40.64916,-7.24478 -44.59795,-7.49459 -3.94873,-0.24982 -19.51154,-5.24621 -22.53122,-5.99568 -3.01963,-0.74945 -15.79512,-5.74585 -19.5116,-6.99495 -3.71649,-1.24909 -21.13751,-9.49315 -28.10593,-12.49098 -6.96846,-2.99784 -22.76352,-10.99208 -29.03514,-14.48954 -6.27156,-3.49748 -9.75579,-4.9964 -14.16908,-7.4946 -4.41335,-2.49819 -14.866,-10.49243 -19.04704,-14.48954 -4.18105,-3.99712 -6.73617,-6.74513 -10.22036,-11.4917 -3.48423,-4.74658 -5.57476,-7.99423 -7.43296,-11.49171 -1.85828,-3.49748 -3.9488,-19.98558 -3.9488,-19.98558 3.01963,-20.48521 17.42107,-33.22601 22.06667,-36.97331 4.64565,-3.74729 13.93683,-8.9935 13.93683,-8.9935 l 137.04567,57.95816 3.71649,1.74874 33.91304,-30.97765 -0.0962,-6.11171 -31.95851,26.84675 -1.62596,9.49315 m 160.64039,-23.1496 c -4.92743,0.3533 -27.26508,-12.1888 -27.26508,-12.1888 -12.15425,-6.35936 -37.2841,-22.08114 -37.2841,-22.08114 0,0 -30.55005,-15.19184 -39.74785,-18.72482 -9.19786,-3.53298 -24.96559,-6.00608 -25.95111,-6.18272 -0.98546,-0.17664 -4.76313,-0.52995 -8.21234,-0.52995 -3.44922,0 -6.07716,1.76649 -6.73418,2.11979 -0.65695,0.35329 -1.31397,4.76952 -0.65695,7.59591 0.65695,2.82639 3.77765,4.94618 4.59893,8.30252 0.82121,3.35633 0.32851,5.47612 0.16426,6.71267 -0.16426,1.23654 -4.59894,6.18272 -7.06269,7.9492 -2.46368,1.7665 -8.37659,3.17969 -8.37659,3.17969 m 11.33304,-33.73999 -4.76312,4.94618 c 0,0 -4.10623,9.18575 -5.58446,12.36544 -1.47822,3.17968 -6.24141,13.95529 -6.24141,13.95529 l 5.74871,2.29644 m 7.39113,-30.03037 c -3.77773,5.56446 -1.72463,10.51063 -1.47822,12.10047 0.24635,1.58985 2.05308,2.56142 2.95645,5.12282 0.90336,2.56143 1.23181,2.38477 0.57485,5.65279 -0.65701,3.26801 -9.36211,7.24262 -9.36211,7.24262"
         id="path4048-31"
         style="fill:none;stroke:#000000;stroke-width:1px;stroke-linecap:butt;stroke-linejoin:miter;stroke-opacity:1;display:inline"
         inkscape:connector-curvature="0" />
    </g>
  </g>
</svg>
